<svg xmlns="http://www.w3.org/2000/svg" viewBox="0 0 256 256" width="256" height="256"><ellipse cx="128" cy="210" rx="55" ry="12" fill="#000" opacity="0.35"/>
    <defs>
      <pattern id="tape-62-98" width="8" height="8" patternUnits="userSpaceOnUse" patternTransform="rotate(45)">
        <rect width="8" height="8" fill="#fbbf24"/>
        <rect width="4" height="8" fill="#1e293b"/>
      </pattern>
    </defs>
    <rect x="62" y="98" width="132" height="4" fill="url(#tape-62-98)"/>
    <rect x="62" y="194" width="132" height="4" fill="url(#tape-62-98)"/>
    <rect x="62" y="98" width="4" height="100" fill="url(#tape-62-98)"/>
    <rect x="190" y="98" width="4" height="100" fill="url(#tape-62-98)"/>
  
    <ellipse cx="95" cy="182" rx="18" ry="8" fill="#4a3728"/>
    <ellipse cx="87" cy="178" rx="12" ry="6" fill="#5c4033"/>
    <ellipse cx="105" cy="180" rx="10" ry="5" fill="#6b4c35"/>
  
    <g transform="translate(190,100)">
      <rect x="-2" y="0" width="4" height="50" fill="#64748b"/>
      <rect x="-2" y="20" width="40" height="3" fill="#94a3b8"/>
      <line x1="0" y1="20" x2="30" y2="5" stroke="#64748b" stroke-width="2"/>
      <rect x="27.500000000000004" y="2" width="8" height="6" fill="#f59e0b" rx="1"/>
    </g>
  <rect x="78" y="168" width="100" height="6" fill="#5c4033"/>
    <g opacity="0.85">
      <rect x="92" y="108" width="3" height="45" fill="#94a3b8"/>
      <rect x="161" y="108" width="3" height="45" fill="#94a3b8"/>
      <rect x="92" y="108" width="72" height="3" fill="#cbd5e0"/>
      <rect x="92" y="130.5" width="72" height="2" fill="#cbd5e0"/>
      <rect x="92" y="150" width="72" height="3" fill="#cbd5e0"/>
    </g>
  </svg>