<svg xmlns="http://www.w3.org/2000/svg" viewBox="0 0 512 512" fill="none">
  <rect width="512" height="512" rx="112" fill="#EFD98C"/>
  <path
    d="M256 88 L392 152 L392 296 Q392 388 256 440 Q120 388 120 296 L120 152 Z"
    fill="none"
    stroke="#2E2A3F"
    stroke-width="20"
    stroke-linejoin="round"
  />
  <circle cx="256" cy="292" r="88" fill="#FEFAFF" stroke="#2E2A3F" stroke-width="12"/>
  <path
    d="M256 228 L288 248 L276 292 L236 292 L224 248 Z"
    fill="#2E2A3F"
  />
  <path
    d="M256 248 L272 260 L266 280 L246 280 L240 260 Z"
    fill="#2E2A3F"
    opacity="0.85"
  />
  <path
    d="M208 218 L256 178 L304 218 L292 236 L256 204 L220 236 Z"
    fill="#EFD98C"
    stroke="#2E2A3F"
    stroke-width="8"
    stroke-linejoin="round"
  />
  <path d="M256 148 L274 178 L238 178 Z" fill="#5E201B"/>
  <path
    d="M228 352 L256 362 L284 352"
    stroke="#5E201B"
    stroke-width="10"
    stroke-linecap="round"
  />
  <path d="M240 362 L240 368 M256 362 L256 372 M272 362 L272 368" stroke="#5E201B" stroke-width="6" stroke-linecap="round"/>
</svg>
