<svg xmlns="http://www.w3.org/2000/svg" viewBox="0 0 256 128" width="256" height="128">
    <g transform="translate(0,0)">
      <rect x="10" y="70" width="50" height="22" rx="4" fill="#f59e0b"/>
      <rect x="55" y="65" width="18" height="28" fill="#eab308"/>
      <circle cx="22" cy="94" r="10" fill="#1e293b"/><circle cx="22" cy="94" r="5" fill="#475569"/>
      <circle cx="48" cy="94" r="10" fill="#1e293b"/><circle cx="48" cy="94" r="5" fill="#475569"/>
      <rect x="60" y="50" width="30" height="6" fill="#64748b" transform="rotate(-15 60 50)"/>
      <rect x="82" y="38" width="20" height="8" fill="#94a3b8" transform="rotate(-30 82 38)"/>
    </g>
  
    <g transform="translate(64,0)">
      <rect x="10" y="70" width="50" height="22" rx="4" fill="#f59e0b"/>
      <rect x="55" y="65" width="18" height="28" fill="#eab308"/>
      <circle cx="22" cy="94" r="10" fill="#1e293b"/><circle cx="22" cy="94" r="5" fill="#475569"/>
      <circle cx="48" cy="94" r="10" fill="#1e293b"/><circle cx="48" cy="94" r="5" fill="#475569"/>
      <rect x="60" y="50" width="30" height="6" fill="#64748b" transform="rotate(-15 60 50)"/>
      <rect x="82" y="38" width="20" height="8" fill="#94a3b8" transform="rotate(-30 82 38)"/>
    </g>
  
    <g transform="translate(128,0)">
      <rect x="10" y="70" width="50" height="22" rx="4" fill="#f59e0b"/>
      <rect x="55" y="65" width="18" height="28" fill="#eab308"/>
      <circle cx="22" cy="94" r="10" fill="#1e293b"/><circle cx="22" cy="94" r="5" fill="#475569"/>
      <circle cx="48" cy="94" r="10" fill="#1e293b"/><circle cx="48" cy="94" r="5" fill="#475569"/>
      <rect x="60" y="50" width="30" height="6" fill="#64748b" transform="rotate(-15 60 50)"/>
      <rect x="82" y="38" width="20" height="8" fill="#94a3b8" transform="rotate(-30 82 38)"/>
    </g>
  
    <g transform="translate(192,0)">
      <rect x="10" y="70" width="50" height="22" rx="4" fill="#f59e0b"/>
      <rect x="55" y="65" width="18" height="28" fill="#eab308"/>
      <circle cx="22" cy="94" r="10" fill="#1e293b"/><circle cx="22" cy="94" r="5" fill="#475569"/>
      <circle cx="48" cy="94" r="10" fill="#1e293b"/><circle cx="48" cy="94" r="5" fill="#475569"/>
      <rect x="60" y="50" width="30" height="6" fill="#64748b" transform="rotate(-15 60 50)"/>
      <rect x="82" y="38" width="20" height="8" fill="#94a3b8" transform="rotate(-30 82 38)"/>
    </g>
  </svg>