<svg xmlns="http://www.w3.org/2000/svg" viewBox="0 0 1024 768" width="1024" height="768">
    <defs>
      <linearGradient id="grass" x1="0" y1="0" x2="0" y2="1">
        <stop offset="0%" stop-color="#2d6a4f"/>
        <stop offset="100%" stop-color="#1a3328"/>
      </linearGradient>
    </defs>
    <rect width="1024" height="768" fill="url(#grass)"/>
    <ellipse cx="512" cy="400" rx="480" ry="320" fill="#40916c" opacity="0.25"/>
    <path d="M0 420 Q256 380 512 400 T1024 420 L1024 768 L0 768 Z" fill="#1a3328" opacity="0.3"/>
    <path d="M0 380 L1024 380" stroke="#b4a078" stroke-width="28" opacity="0.5"/>
    <path d="M0 382 L1024 382" stroke="#d4c4a0" stroke-width="4" opacity="0.3"/>
    <path d="M350 0 L350 768" stroke="#b4a078" stroke-width="18" opacity="0.35"/>
    <path d="M650 100 L650 768" stroke="#b4a078" stroke-width="14" opacity="0.3"/>
    
      <ellipse cx="40" cy="100" rx="22" ry="8" fill="#1a3328" opacity="0.4"/>
      <circle cx="40" cy="80" r="18" fill="#2d6a4f"/>
      <circle cx="32" cy="85" r="12" fill="#40916c"/>
      <circle cx="50" cy="83" r="10" fill="#52b788"/>
    
      <ellipse cx="220" cy="130" rx="22" ry="8" fill="#1a3328" opacity="0.4"/>
      <circle cx="220" cy="110" r="18" fill="#2d6a4f"/>
      <circle cx="212" cy="115" r="12" fill="#40916c"/>
      <circle cx="230" cy="113" r="10" fill="#52b788"/>
    
      <ellipse cx="400" cy="100" rx="22" ry="8" fill="#1a3328" opacity="0.4"/>
      <circle cx="400" cy="80" r="18" fill="#2d6a4f"/>
      <circle cx="392" cy="85" r="12" fill="#40916c"/>
      <circle cx="410" cy="83" r="10" fill="#52b788"/>
    
      <ellipse cx="520" cy="130" rx="22" ry="8" fill="#1a3328" opacity="0.4"/>
      <circle cx="520" cy="110" r="18" fill="#2d6a4f"/>
      <circle cx="512" cy="115" r="12" fill="#40916c"/>
      <circle cx="530" cy="113" r="10" fill="#52b788"/>
    
      <ellipse cx="700" cy="100" rx="22" ry="8" fill="#1a3328" opacity="0.4"/>
      <circle cx="700" cy="80" r="18" fill="#2d6a4f"/>
      <circle cx="692" cy="85" r="12" fill="#40916c"/>
      <circle cx="710" cy="83" r="10" fill="#52b788"/>
    
      <ellipse cx="880" cy="130" rx="22" ry="8" fill="#1a3328" opacity="0.4"/>
      <circle cx="880" cy="110" r="18" fill="#2d6a4f"/>
      <circle cx="872" cy="115" r="12" fill="#40916c"/>
      <circle cx="890" cy="113" r="10" fill="#52b788"/>
    
      <ellipse cx="40" cy="300" rx="22" ry="8" fill="#1a3328" opacity="0.4"/>
      <circle cx="40" cy="280" r="18" fill="#2d6a4f"/>
      <circle cx="32" cy="285" r="12" fill="#40916c"/>
      <circle cx="50" cy="283" r="10" fill="#52b788"/>
    
      <ellipse cx="220" cy="330" rx="22" ry="8" fill="#1a3328" opacity="0.4"/>
      <circle cx="220" cy="310" r="18" fill="#2d6a4f"/>
      <circle cx="212" cy="315" r="12" fill="#40916c"/>
      <circle cx="230" cy="313" r="10" fill="#52b788"/>
    
      <ellipse cx="400" cy="300" rx="22" ry="8" fill="#1a3328" opacity="0.4"/>
      <circle cx="400" cy="280" r="18" fill="#2d6a4f"/>
      <circle cx="392" cy="285" r="12" fill="#40916c"/>
      <circle cx="410" cy="283" r="10" fill="#52b788"/>
    
      <ellipse cx="520" cy="330" rx="22" ry="8" fill="#1a3328" opacity="0.4"/>
      <circle cx="520" cy="310" r="18" fill="#2d6a4f"/>
      <circle cx="512" cy="315" r="12" fill="#40916c"/>
      <circle cx="530" cy="313" r="10" fill="#52b788"/>
    
      <ellipse cx="700" cy="300" rx="22" ry="8" fill="#1a3328" opacity="0.4"/>
      <circle cx="700" cy="280" r="18" fill="#2d6a4f"/>
      <circle cx="692" cy="285" r="12" fill="#40916c"/>
      <circle cx="710" cy="283" r="10" fill="#52b788"/>
    
      <ellipse cx="880" cy="330" rx="22" ry="8" fill="#1a3328" opacity="0.4"/>
      <circle cx="880" cy="310" r="18" fill="#2d6a4f"/>
      <circle cx="872" cy="315" r="12" fill="#40916c"/>
      <circle cx="890" cy="313" r="10" fill="#52b788"/>
    
      <ellipse cx="40" cy="500" rx="22" ry="8" fill="#1a3328" opacity="0.4"/>
      <circle cx="40" cy="480" r="18" fill="#2d6a4f"/>
      <circle cx="32" cy="485" r="12" fill="#40916c"/>
      <circle cx="50" cy="483" r="10" fill="#52b788"/>
    
      <ellipse cx="220" cy="530" rx="22" ry="8" fill="#1a3328" opacity="0.4"/>
      <circle cx="220" cy="510" r="18" fill="#2d6a4f"/>
      <circle cx="212" cy="515" r="12" fill="#40916c"/>
      <circle cx="230" cy="513" r="10" fill="#52b788"/>
    
      <ellipse cx="400" cy="500" rx="22" ry="8" fill="#1a3328" opacity="0.4"/>
      <circle cx="400" cy="480" r="18" fill="#2d6a4f"/>
      <circle cx="392" cy="485" r="12" fill="#40916c"/>
      <circle cx="410" cy="483" r="10" fill="#52b788"/>
    
      <ellipse cx="520" cy="530" rx="22" ry="8" fill="#1a3328" opacity="0.4"/>
      <circle cx="520" cy="510" r="18" fill="#2d6a4f"/>
      <circle cx="512" cy="515" r="12" fill="#40916c"/>
      <circle cx="530" cy="513" r="10" fill="#52b788"/>
    
      <ellipse cx="700" cy="500" rx="22" ry="8" fill="#1a3328" opacity="0.4"/>
      <circle cx="700" cy="480" r="18" fill="#2d6a4f"/>
      <circle cx="692" cy="485" r="12" fill="#40916c"/>
      <circle cx="710" cy="483" r="10" fill="#52b788"/>
    
      <ellipse cx="880" cy="530" rx="22" ry="8" fill="#1a3328" opacity="0.4"/>
      <circle cx="880" cy="510" r="18" fill="#2d6a4f"/>
      <circle cx="872" cy="515" r="12" fill="#40916c"/>
      <circle cx="890" cy="513" r="10" fill="#52b788"/>
    
    <ellipse cx="512" cy="384" rx="200" ry="120" fill="#070b18" opacity="0.15"/>
  </svg>