<svg xmlns="http://www.w3.org/2000/svg" viewBox="0 0 256 256" width="256" height="256"><ellipse cx="128" cy="215" rx="65" ry="14" fill="#000" opacity="0.35"/>
    <rect x="40" y="140" width="176" height="55" fill="#2d6a4f" rx="2"/>
    <rect x="44" y="144" width="168" height="47" fill="none" stroke="#fff" stroke-width="1" opacity="0.5"/>
    <line x1="128" y1="144" x2="128" y2="191" stroke="#fff" stroke-width="0.8" opacity="0.4"/>
    <circle cx="128" cy="167.5" r="8" fill="none" stroke="#fff" stroke-width="0.8" opacity="0.4"/>
  
    <polygon points="50,95 70,105 50,115 30,105" fill="#94a3b8"/>
    <polygon points="30,105 50,115 50,143 30,133" fill="#64748b"/>
    <polygon points="70,105 50,115 50,143 70,133" fill="#cbd5e0"/>
  
    <polygon points="105,90 125,100 105,110 85,100" fill="#94a3b8"/>
    <polygon points="85,100 105,110 105,138 85,128" fill="#64748b"/>
    <polygon points="125,100 105,110 105,138 125,128" fill="#cbd5e0"/>
  </svg>