<svg xmlns="http://www.w3.org/2000/svg" viewBox="0 0 256 256" width="256" height="256"><ellipse cx="128" cy="210" rx="55" ry="12" fill="#000" opacity="0.35"/>
    <defs>
      <pattern id="tape-28-105" width="8" height="8" patternUnits="userSpaceOnUse" patternTransform="rotate(45)">
        <rect width="8" height="8" fill="#fbbf24"/>
        <rect width="4" height="8" fill="#1e293b"/>
      </pattern>
    </defs>
    <rect x="28" y="105" width="200" height="4" fill="url(#tape-28-105)"/>
    <rect x="28" y="196" width="200" height="4" fill="url(#tape-28-105)"/>
    <rect x="28" y="105" width="4" height="95" fill="url(#tape-28-105)"/>
    <rect x="224" y="105" width="4" height="95" fill="url(#tape-28-105)"/>
  
    <ellipse cx="55" cy="178" rx="18" ry="8" fill="#4a3728"/>
    <ellipse cx="47" cy="174" rx="12" ry="6" fill="#5c4033"/>
    <ellipse cx="65" cy="176" rx="10" ry="5" fill="#6b4c35"/>
  
    <ellipse cx="200" cy="180" rx="18" ry="8" fill="#4a3728"/>
    <ellipse cx="192" cy="176" rx="12" ry="6" fill="#5c4033"/>
    <ellipse cx="210" cy="178" rx="10" ry="5" fill="#6b4c35"/>
  <rect x="50" y="160" width="156" height="6" fill="#5c4033"/>
    <g transform="translate(210,108)">
      <rect x="-2" y="0" width="4" height="50" fill="#64748b"/>
      <rect x="-2" y="20" width="40" height="3" fill="#94a3b8"/>
      <line x1="0" y1="20" x2="30" y2="5" stroke="#64748b" stroke-width="2"/>
      <rect x="27.500000000000004" y="2" width="8" height="6" fill="#f59e0b" rx="1"/>
    </g>
  
    <g opacity="0.85">
      <rect x="85" y="115" width="3" height="40" fill="#94a3b8"/>
      <rect x="168" y="115" width="3" height="40" fill="#94a3b8"/>
      <rect x="85" y="115" width="86" height="3" fill="#cbd5e0"/>
      <rect x="85" y="135" width="86" height="2" fill="#cbd5e0"/>
      <rect x="85" y="152" width="86" height="3" fill="#cbd5e0"/>
    </g>
  
    <rect x="40" y="158" width="70" height="38" fill="#2d6a4f" rx="2"/>
    <rect x="44" y="162" width="62" height="30" fill="none" stroke="#fff" stroke-width="1" opacity="0.5"/>
    <line x1="75" y1="162" x2="75" y2="192" stroke="#fff" stroke-width="0.8" opacity="0.4"/>
    <circle cx="75" cy="177" r="8" fill="none" stroke="#fff" stroke-width="0.8" opacity="0.4"/>
  
    <polygon points="95,118 125,133 95,148 65,133" fill="#b45309"/>
    <polygon points="65,133 95,148 95,166 65,151" fill="#92400e"/>
    <polygon points="125,133 95,148 95,166 125,151" fill="#d97706"/>
  
    <rect x="35" y="152" width="75" height="42" fill="#2d6a4f" rx="2"/>
    <rect x="39" y="156" width="67" height="34" fill="none" stroke="#fff" stroke-width="1" opacity="0.5"/>
    <line x1="72.5" y1="156" x2="72.5" y2="190" stroke="#fff" stroke-width="0.8" opacity="0.4"/>
    <circle cx="72.5" cy="173" r="8" fill="none" stroke="#fff" stroke-width="0.8" opacity="0.4"/>
  
    <rect x="145" y="152" width="75" height="42" fill="#2d6a4f" rx="2"/>
    <rect x="149" y="156" width="67" height="34" fill="none" stroke="#fff" stroke-width="1" opacity="0.5"/>
    <line x1="182.5" y1="156" x2="182.5" y2="190" stroke="#fff" stroke-width="0.8" opacity="0.4"/>
    <circle cx="182.5" cy="173" r="8" fill="none" stroke="#fff" stroke-width="0.8" opacity="0.4"/>
  </svg>